<svg width="189" height="105" viewBox="0 0 189 105" fill="none" xmlns="http://www.w3.org/2000/svg">
<path d="M100.442 49.8797C99.1429 49.8797 98.0106 49.6554 97.045 49.2067C96.1297 48.8001 95.3506 48.1415 94.7994 47.3086C94.2581 46.4606 93.9804 45.4726 94.0011 44.4683V43.7683C94.0003 43.7257 94.0083 43.6835 94.0246 43.6441C94.0409 43.6047 94.0651 43.5691 94.0958 43.5394C94.1256 43.5089 94.1614 43.4848 94.201 43.4686C94.2406 43.4524 94.283 43.4445 94.3258 43.4452H98.1145C98.1573 43.4445 98.1998 43.4524 98.2393 43.4686C98.2789 43.4848 98.3147 43.5089 98.3445 43.5394C98.3752 43.5691 98.3994 43.6047 98.4157 43.6441C98.432 43.6835 98.44 43.7257 98.4392 43.7683V44.2529C98.4371 44.4966 98.4895 44.7377 98.5924 44.9589C98.6954 45.18 98.8464 45.3757 99.0346 45.5317C99.4315 45.8817 99.9637 46.0567 100.631 46.0567C101.191 46.0567 101.615 45.9131 101.903 45.6259C102.044 45.4896 102.155 45.3261 102.229 45.1456C102.303 44.965 102.34 44.7711 102.336 44.576C102.344 44.2562 102.233 43.9448 102.025 43.701C101.783 43.4319 101.494 43.2087 101.173 43.0419C100.812 42.8445 100.189 42.5214 99.3052 42.0727C98.3999 41.6391 97.5232 41.1489 96.6802 40.6049C95.9416 40.1122 95.311 39.4756 94.8265 38.7337C94.3123 37.962 94.0552 37.0376 94.0552 35.9607C94.0331 34.9623 94.306 33.9794 94.84 33.1338C95.3763 32.3148 96.1369 31.6656 97.032 31.2627C98.043 30.8079 99.1431 30.5827 100.252 30.6037C101.402 30.583 102.542 30.8272 103.581 31.3171C104.514 31.7569 105.306 32.4466 105.868 33.3088C106.426 34.1903 106.713 35.2151 106.693 36.2569V36.7684C106.694 36.8109 106.686 36.8532 106.67 36.8926C106.653 36.9319 106.629 36.9675 106.598 36.9972C106.569 37.0277 106.533 37.0518 106.493 37.068C106.454 37.0842 106.411 37.0922 106.368 37.0915H102.58C102.537 37.0922 102.494 37.0842 102.455 37.068C102.415 37.0518 102.38 37.0277 102.35 36.9972C102.319 36.9675 102.295 36.9319 102.279 36.8926C102.262 36.8532 102.254 36.8109 102.255 36.7684V36.3107C102.258 36.0616 102.21 35.8145 102.112 35.5851C102.014 35.3558 101.869 35.1492 101.687 34.9786C101.308 34.6106 100.794 34.4267 100.144 34.4267C99.621 34.4267 99.215 34.5613 98.9264 34.8305C98.7796 34.9734 98.6651 35.1457 98.5904 35.3361C98.5158 35.5264 98.4827 35.7303 98.4934 35.9343C98.4882 36.2597 98.593 36.5773 98.7911 36.8363C99.051 37.1481 99.3678 37.4084 99.7247 37.6035C100.149 37.8548 100.794 38.196 101.66 38.6272L102.444 39.0579C103.246 39.4896 104.023 39.9657 104.772 40.4837C105.36 40.9079 105.853 41.4488 106.22 42.0722C106.607 42.7183 106.801 43.4989 106.801 44.4139C106.801 46.101 106.22 47.4337 105.056 48.4119C103.892 49.3901 102.354 49.8794 100.442 49.8797ZM118.763 31.141C118.762 31.0984 118.77 31.0562 118.786 31.0168C118.803 30.9774 118.827 30.9418 118.858 30.9121C118.887 30.8816 118.923 30.8575 118.963 30.8413C119.002 30.8251 119.045 30.8172 119.088 30.8179H122.93C122.973 30.8172 123.016 30.8251 123.055 30.8413C123.095 30.8575 123.131 30.8816 123.16 30.9121C123.191 30.9418 123.215 30.9774 123.232 31.0168C123.248 31.0562 123.256 31.0984 123.255 31.141V49.3418C123.256 49.3844 123.248 49.4267 123.232 49.466C123.215 49.5054 123.191 49.541 123.16 49.5707C123.131 49.6011 123.095 49.6251 123.055 49.6412C123.016 49.6573 122.973 49.6652 122.93 49.6643H119.088C119.045 49.6651 119.002 49.6571 118.963 49.6409C118.923 49.6247 118.887 49.6006 118.858 49.5701C118.827 49.5404 118.803 49.5048 118.786 49.4655C118.77 49.4261 118.762 49.3838 118.763 49.3413V42.2337C118.765 42.2154 118.764 42.1968 118.758 42.1793C118.752 42.1617 118.742 42.1458 118.729 42.1328C118.716 42.1197 118.7 42.1099 118.682 42.104C118.665 42.0982 118.646 42.0965 118.628 42.0991H115.137C115.118 42.0965 115.099 42.0982 115.082 42.104C115.064 42.1099 115.048 42.1197 115.035 42.1328C115.022 42.1458 115.012 42.1617 115.006 42.1793C115 42.1968 114.999 42.2154 115.001 42.2337V49.3418C115.002 49.3843 114.994 49.4264 114.978 49.4656C114.962 49.5049 114.938 49.5405 114.907 49.5701C114.877 49.6007 114.841 49.6248 114.802 49.641C114.762 49.6573 114.719 49.6652 114.676 49.6643H110.834C110.791 49.6651 110.748 49.6571 110.709 49.6409C110.669 49.6247 110.633 49.6006 110.604 49.5701C110.573 49.5405 110.549 49.5049 110.533 49.4656C110.517 49.4264 110.509 49.3843 110.509 49.3418V31.141C110.509 31.0984 110.517 31.0562 110.533 31.0168C110.549 30.9774 110.574 30.9418 110.604 30.9121C110.634 30.8816 110.67 30.8575 110.709 30.8413C110.749 30.8251 110.791 30.8172 110.834 30.8179H114.677C114.72 30.8172 114.762 30.8251 114.802 30.8413C114.841 30.8575 114.877 30.8816 114.907 30.9121C114.938 30.9418 114.962 30.9774 114.978 31.0168C114.995 31.0562 115.003 31.0984 115.002 31.141V38.1409C114.999 38.1592 115.001 38.1778 115.007 38.1953C115.013 38.2128 115.023 38.2288 115.036 38.2418C115.049 38.2549 115.065 38.2647 115.082 38.2706C115.1 38.2764 115.119 38.2781 115.137 38.2755H118.628C118.646 38.2781 118.665 38.2764 118.683 38.2706C118.7 38.2647 118.716 38.2549 118.73 38.2418C118.743 38.2288 118.753 38.2128 118.758 38.1953C118.764 38.1778 118.766 38.1592 118.763 38.1409L118.763 31.141ZM133.512 49.8797C132.336 49.9034 131.17 49.6449 130.115 49.1259C129.159 48.6489 128.368 47.899 127.842 46.9721C127.296 45.9834 127.021 44.8693 127.044 43.7414V36.6882C127.044 35.4677 127.31 34.3997 127.842 33.4844C128.374 32.569 129.164 31.8292 130.115 31.3569C131.17 30.838 132.336 30.5794 133.512 30.6031C134.686 30.5796 135.849 30.8284 136.909 31.33C137.856 31.7818 138.648 32.5033 139.182 33.403C139.728 34.3527 140.003 35.432 139.979 36.5255V36.6332C139.98 36.7229 139.946 36.8094 139.885 36.8755C139.857 36.9094 139.822 36.9367 139.782 36.9553C139.742 36.9739 139.699 36.9835 139.655 36.9832L135.812 37.1453C135.596 37.1453 135.488 37.0466 135.488 36.8492V36.4722C135.5 36.2021 135.458 35.9324 135.365 35.6783C135.272 35.4242 135.13 35.1908 134.947 34.9915C134.761 34.8021 134.537 34.6539 134.29 34.5565C134.043 34.459 133.778 34.4146 133.512 34.4261C133.247 34.4146 132.982 34.459 132.734 34.5565C132.487 34.6539 132.264 34.8021 132.078 34.9915C131.894 35.1908 131.752 35.4242 131.659 35.6783C131.566 35.9324 131.525 36.2021 131.537 36.4722V44.0106C131.525 44.2807 131.566 44.5505 131.659 44.8045C131.752 45.0586 131.894 45.292 132.078 45.4913C132.264 45.6807 132.487 45.8289 132.734 45.9264C132.982 46.0238 133.247 46.0682 133.512 46.0567C133.778 46.0682 134.043 46.0238 134.29 45.9264C134.537 45.8289 134.761 45.6807 134.947 45.4913C135.13 45.292 135.272 45.0586 135.365 44.8045C135.458 44.5505 135.5 44.2807 135.488 44.0106V43.6337C135.488 43.4362 135.596 43.3375 135.812 43.3375L139.655 43.4991C139.699 43.4988 139.742 43.5083 139.782 43.527C139.822 43.5456 139.857 43.5729 139.885 43.6067C139.946 43.6729 139.98 43.7593 139.979 43.849V43.9029C140.002 45.0008 139.726 46.0844 139.181 47.0394C138.648 47.9468 137.857 48.6774 136.908 49.1394C135.851 49.6495 134.687 49.9032 133.512 49.8797ZM153.619 49.6643C153.576 49.6682 153.533 49.6636 153.492 49.6507C153.451 49.6379 153.413 49.6171 153.38 49.5895C153.348 49.562 153.321 49.5282 153.301 49.4902C153.282 49.4522 153.27 49.4108 153.266 49.3682L152.725 46.9984C152.72 46.9669 152.704 46.9383 152.679 46.9183C152.654 46.8984 152.622 46.8885 152.59 46.8908H148.017C147.985 46.8885 147.953 46.8984 147.928 46.9183C147.903 46.9383 147.886 46.9669 147.882 46.9984L147.34 49.3682C147.337 49.4107 147.325 49.4521 147.306 49.4901C147.286 49.528 147.259 49.5618 147.227 49.5893C147.194 49.6168 147.156 49.6377 147.115 49.6505C147.074 49.6634 147.031 49.6681 146.989 49.6643H143.01C142.776 49.6643 142.685 49.5475 142.74 49.3138L147.584 31.0877C147.604 31.0051 147.653 30.9324 147.723 30.883C147.793 30.8336 147.878 30.8107 147.963 30.8185H152.699C152.784 30.8107 152.869 30.8336 152.938 30.883C153.008 30.9324 153.057 31.0051 153.078 31.0877L157.922 49.3138L157.949 49.4215C157.949 49.5834 157.849 49.6643 157.651 49.6643H153.619ZM148.693 43.3106C148.675 43.4003 148.721 43.4452 148.829 43.4452H151.724C151.764 43.444 151.802 43.4298 151.833 43.4048C151.851 43.3908 151.863 43.3711 151.868 43.349C151.873 43.327 151.87 43.3039 151.86 43.2837L150.344 36.6068C150.326 36.5351 150.299 36.4992 150.263 36.4992C150.227 36.4992 150.2 36.5351 150.182 36.6068L148.693 43.3106ZM173.401 34.3184C173.401 34.361 173.393 34.4032 173.377 34.4426C173.361 34.482 173.336 34.5176 173.306 34.5473C173.276 34.5778 173.24 34.6019 173.201 34.6181C173.161 34.6343 173.119 34.6423 173.076 34.6415H166.121C166.103 34.6389 166.084 34.6406 166.067 34.6464C166.049 34.6523 166.033 34.6621 166.02 34.6752C166.007 34.6882 165.997 34.7042 165.991 34.7217C165.985 34.7392 165.983 34.7578 165.986 34.7761V38.1414C165.983 38.1597 165.985 38.1784 165.991 38.1959C165.997 38.2134 166.007 38.2293 166.02 38.2424C166.033 38.2554 166.049 38.2653 166.067 38.2711C166.084 38.277 166.103 38.2787 166.121 38.2761H170.316C170.359 38.2753 170.401 38.2833 170.441 38.2995C170.48 38.3157 170.516 38.3398 170.546 38.3703C170.577 38.4 170.601 38.4356 170.617 38.4749C170.634 38.5143 170.642 38.5566 170.641 38.5991V41.776C170.642 41.8186 170.634 41.8608 170.617 41.9002C170.601 41.9395 170.577 41.9752 170.546 42.0048C170.516 42.0354 170.48 42.0594 170.441 42.0757C170.401 42.0919 170.359 42.0998 170.316 42.0991H166.121C166.103 42.0965 166.084 42.0982 166.067 42.104C166.049 42.1099 166.033 42.1197 166.02 42.1328C166.007 42.1458 165.997 42.1617 165.991 42.1793C165.985 42.1968 165.983 42.2154 165.986 42.2337V49.3418C165.987 49.3844 165.979 49.4267 165.963 49.466C165.946 49.5054 165.922 49.541 165.891 49.5707C165.862 49.6011 165.826 49.6251 165.786 49.6412C165.747 49.6573 165.704 49.6652 165.661 49.6643H161.819C161.776 49.665 161.733 49.657 161.694 49.6408C161.655 49.6246 161.619 49.6006 161.589 49.5701C161.558 49.5404 161.534 49.5048 161.518 49.4655C161.502 49.4261 161.494 49.3838 161.494 49.3413V31.141C161.494 31.0984 161.502 31.0562 161.518 31.0168C161.534 30.9774 161.558 30.9418 161.589 30.9121C161.619 30.8816 161.655 30.8575 161.694 30.8413C161.734 30.8251 161.776 30.8172 161.819 30.8179H173.076C173.119 30.8172 173.162 30.8251 173.201 30.8413C173.241 30.8575 173.277 30.8816 173.306 30.9121C173.337 30.9418 173.361 30.9774 173.378 31.0168C173.394 31.0562 173.402 31.0984 173.401 31.141L173.401 34.3184ZM188.609 34.3184C188.61 34.361 188.602 34.4032 188.585 34.4426C188.569 34.482 188.545 34.5176 188.514 34.5473C188.484 34.5778 188.448 34.6019 188.409 34.6181C188.369 34.6343 188.327 34.6423 188.284 34.6415H181.33C181.312 34.6389 181.293 34.6406 181.276 34.6464C181.258 34.6523 181.242 34.6621 181.229 34.6752C181.216 34.6882 181.206 34.7042 181.2 34.7217C181.194 34.7392 181.192 34.7578 181.195 34.7761V38.1414C181.192 38.1597 181.194 38.1784 181.2 38.1959C181.206 38.2134 181.216 38.2293 181.229 38.2424C181.242 38.2554 181.258 38.2653 181.276 38.2711C181.293 38.277 181.312 38.2787 181.33 38.2761H185.525C185.568 38.2753 185.61 38.2833 185.65 38.2995C185.689 38.3157 185.725 38.3398 185.755 38.3703C185.786 38.4 185.81 38.4356 185.826 38.4749C185.842 38.5143 185.85 38.5566 185.85 38.5991V41.776C185.85 41.8186 185.842 41.8608 185.826 41.9002C185.81 41.9395 185.786 41.9752 185.755 42.0048C185.725 42.0354 185.689 42.0594 185.65 42.0757C185.61 42.0919 185.568 42.0998 185.525 42.0991H181.33C181.312 42.0965 181.293 42.0982 181.276 42.104C181.258 42.1099 181.242 42.1197 181.229 42.1328C181.216 42.1458 181.206 42.1617 181.2 42.1793C181.194 42.1968 181.192 42.2154 181.195 42.2337V49.3418C181.196 49.3844 181.188 49.4267 181.171 49.466C181.155 49.5054 181.131 49.541 181.1 49.5707C181.07 49.601 181.035 49.625 180.995 49.6411C180.956 49.6572 180.913 49.6651 180.871 49.6643H177.027C176.985 49.6651 176.942 49.6571 176.903 49.6409C176.863 49.6247 176.827 49.6006 176.797 49.5701C176.767 49.5404 176.743 49.5048 176.726 49.4655C176.71 49.4261 176.702 49.3838 176.703 49.3413V31.141C176.702 31.0984 176.71 31.0562 176.726 31.0168C176.743 30.9774 176.767 30.9418 176.797 30.9121C176.827 30.8816 176.863 30.8575 176.903 30.8413C176.942 30.8251 176.985 30.8172 177.027 30.8179H188.285C188.327 30.8172 188.37 30.8251 188.409 30.8413C188.449 30.8575 188.485 30.8816 188.515 30.9121C188.545 30.9418 188.57 30.9774 188.586 31.0168C188.602 31.0562 188.61 31.0984 188.609 31.141L188.609 34.3184Z" fill="#1B1B1B"/>
<g filter="url(#filter0_d_20_120)">
<rect x="44" y="22" width="35" height="35" rx="10" fill="url(#paint0_linear_20_120)"/>
</g>
<g filter="url(#filter1_d_20_120)">
<path d="M70.127 49.7984H60.9072C60.8873 49.7981 60.8676 49.7961 60.8481 49.7925C60.7516 49.7952 60.6551 49.7984 60.5581 49.7984C59.0704 49.7984 57.8348 49.3448 56.5969 48.7871C52.9708 47.1528 50.3058 43.6473 50.3642 39.4325C50.4407 33.9279 54.9214 29.4353 60.4129 29.3588C61.7654 29.3412 63.108 29.5926 64.3625 30.0985C65.6171 30.6043 66.7586 31.3545 67.7207 32.3053C68.6828 33.2562 69.4463 34.3888 69.9668 35.6373C70.4873 36.8858 70.7545 38.2254 70.7528 39.5781C70.7528 39.7709 70.7475 39.9622 70.7369 40.1519C70.7279 40.3118 70.658 40.4621 70.5417 40.5721C70.4254 40.6821 70.2713 40.7434 70.1112 40.7435L65.2051 40.7447C64.8089 40.7428 64.4277 40.5928 64.1364 40.3241C63.8451 40.0555 63.6647 39.6877 63.6307 39.2929C63.6296 39.2814 63.6285 39.27 63.6273 39.2585C63.5395 38.5429 63.209 37.8791 62.6907 37.3779C62.1725 36.8767 61.4981 36.5684 60.78 36.5046C58.9537 36.3646 57.4446 37.8884 57.5202 39.7069C57.5867 41.3145 59.0202 42.6262 60.625 42.6262H67.4291C68.1012 42.627 68.7666 42.7602 69.3873 43.0182C70.0079 43.2762 70.5716 43.6539 71.0463 44.1297C71.521 44.6056 71.8973 45.1703 72.1537 45.7916C72.4101 46.4128 72.5417 47.0786 72.5409 47.7507V49.1709C72.541 49.3371 72.4752 49.4966 72.3578 49.6143C72.2404 49.732 72.081 49.7982 71.9148 49.7984H70.127Z" fill="url(#paint1_linear_20_120)"/>
</g>
<path d="M72.0192 49.7976C72.1015 49.7975 72.1829 49.7812 72.2589 49.7496C72.3348 49.7179 72.4038 49.6717 72.4619 49.6134C72.52 49.5551 72.566 49.486 72.5974 49.4099C72.6288 49.3338 72.6448 49.2523 72.6447 49.1701V47.75C72.6458 47.0781 72.5146 46.4126 72.2585 45.7915C72.0024 45.1703 71.6265 44.6057 71.1522 44.1299C70.6779 43.654 70.1145 43.2762 69.4942 43.0181C68.8739 42.76 68.2089 42.6266 67.537 42.6255H62.525C60.9214 42.6255 56.7839 49.7976 62.4581 49.7976C62.5551 49.7976 62.6514 49.7944 62.7479 49.7917C62.7673 49.7953 62.7871 49.7973 62.8069 49.7976H72.0192Z" fill="url(#paint2_linear_20_120)"/>
<path d="M70.1759 49.7972C70.3424 49.7972 70.502 49.7311 70.6197 49.6134C70.7374 49.4957 70.8035 49.3361 70.8035 49.1696V47.7496C70.8035 47.0766 70.6709 46.4102 70.4134 45.7884C70.1558 45.1667 69.7784 44.6018 69.3025 44.1259C68.8266 43.6501 68.2616 43.2726 67.6399 43.0151C67.0181 42.7576 66.3517 42.625 65.6787 42.6251H60.6504C59.0415 42.6251 57.6043 41.3134 57.5377 39.7058C57.5021 38.9135 57.7767 38.1385 58.3032 37.5453C58.8297 36.9521 59.5666 36.5875 60.3576 36.5289C61.1486 36.4702 61.9312 36.7221 62.5395 37.2312C63.1477 37.7402 63.5336 38.4663 63.6152 39.2552C63.6164 39.2667 63.6175 39.2782 63.6186 39.2896C63.6516 39.6843 63.8311 40.0523 64.1219 40.3212C64.4127 40.5901 64.7936 40.7403 65.1897 40.7423H70.1609C70.3212 40.7424 70.4755 40.6812 70.5921 40.5712C70.7087 40.4612 70.7788 40.3107 70.788 40.1507C70.7986 39.9607 70.8039 39.7695 70.804 39.5768C70.804 37.5554 70.2046 35.5794 69.0816 33.8987C67.9586 32.218 66.3624 30.908 64.4948 30.1344C62.6273 29.3609 60.5723 29.1585 58.5898 29.5528C56.6072 29.9472 54.7861 30.9206 53.3568 32.3499C51.9274 33.7793 50.954 35.6004 50.5597 37.5829C50.1653 39.5655 50.3677 41.6205 51.1413 43.488C51.9148 45.3555 53.2248 46.9517 54.9055 48.0748C56.5863 49.1978 58.5623 49.7972 60.5837 49.7972H70.1765H70.1759Z" fill="url(#paint3_linear_20_120)"/>
<defs>
<filter id="filter0_d_20_120" x="29" y="9" width="65" height="65" filterUnits="userSpaceOnUse" color-interpolation-filters="sRGB">
<feFlood flood-opacity="0" result="BackgroundImageFix"/>
<feColorMatrix in="SourceAlpha" type="matrix" values="0 0 0 0 0 0 0 0 0 0 0 0 0 0 0 0 0 0 127 0" result="hardAlpha"/>
<feOffset dy="2"/>
<feGaussianBlur stdDeviation="7.5"/>
<feComposite in2="hardAlpha" operator="out"/>
<feColorMatrix type="matrix" values="0 0 0 0 0 0 0 0 0 0 0 0 0 0 0 0 0 0 0.15 0"/>
<feBlend mode="normal" in2="BackgroundImageFix" result="effect1_dropShadow_20_120"/>
<feBlend mode="normal" in="SourceGraphic" in2="effect1_dropShadow_20_120" result="shape"/>
</filter>
<filter id="filter1_d_20_120" x="0.363281" y="-15.6421" width="122.178" height="120.44" filterUnits="userSpaceOnUse" color-interpolation-filters="sRGB">
<feFlood flood-opacity="0" result="BackgroundImageFix"/>
<feColorMatrix in="SourceAlpha" type="matrix" values="0 0 0 0 0 0 0 0 0 0 0 0 0 0 0 0 0 0 127 0" result="hardAlpha"/>
<feOffset dy="5"/>
<feGaussianBlur stdDeviation="25"/>
<feColorMatrix type="matrix" values="0 0 0 0 0 0 0 0 0 0 0 0 0 0 0 0 0 0 0.302 0"/>
<feBlend mode="normal" in2="BackgroundImageFix" result="effect1_dropShadow_20_120"/>
<feBlend mode="normal" in="SourceGraphic" in2="effect1_dropShadow_20_120" result="shape"/>
</filter>
<linearGradient id="paint0_linear_20_120" x1="78.681" y1="22.2917" x2="36.8547" y2="36.195" gradientUnits="userSpaceOnUse">
<stop stop-color="#0A0909"/>
<stop offset="1" stop-color="#292929"/>
</linearGradient>
<linearGradient id="paint1_linear_20_120" x1="98.8657" y1="80.1731" x2="85.3388" y2="128.86" gradientUnits="userSpaceOnUse">
<stop stop-color="#15A3B5"/>
<stop offset="0.527" stop-color="#30BCCE"/>
<stop offset="1" stop-color="#74D5E2"/>
</linearGradient>
<linearGradient id="paint2_linear_20_120" x1="88.1733" y1="60.4554" x2="85.213" y2="78.3679" gradientUnits="userSpaceOnUse">
<stop stop-color="#30BCCE"/>
<stop offset="0.527" stop-color="#30BCCE"/>
<stop offset="1" stop-color="#74D5E2"/>
</linearGradient>
<linearGradient id="paint3_linear_20_120" x1="78.4489" y1="39.5768" x2="60.5837" y2="64.8212" gradientUnits="userSpaceOnUse">
<stop stop-color="#F2F2F2"/>
<stop offset="1" stop-color="white"/>
</linearGradient>
</defs>
</svg>
